{
	"asset":{
		"generator":"Khronos glTF Blender I/O v3.6.27",
		"version":"2.0"
	},
	"extensionsUsed":[
		"KHR_lights_punctual"
	],
	"extensionsRequired":[
		"KHR_lights_punctual"
	],
	"extensions":{
		"KHR_lights_punctual":{
			"lights":[
				{
					"color":[
						1,
						1,
						1
					],
					"intensity":54351.41306588226,
					"type":"point",
					"name":"Light"
				}
			]
		}
	},
	"scene":0,
	"scenes":[
		{
			"name":"Scene",
			"nodes":[
				0,
				1,
				2
			]
		}
	],
	"nodes":[
		{
			"extensions":{
				"KHR_lights_punctual":{
					"light":0
				}
			},
			"name":"Light",
			"rotation":[
				-0.28416627645492554,
				0.7269423007965088,
				0.34203392267227173,
				0.5232754945755005
			],
			"translation":[
				4.076245307922363,
				5.903861999511719,
				-1.0054539442062378
			]
		},
		{
			"camera":0,
			"name":"Camera",
			"rotation":[
				-0.20997299253940582,
				0.3857799470424652,
				0.09062844514846802,
				0.8937962055206299
			],
			"translation":[
				7.358891487121582,
				4.958309173583984,
				6.925790786743164
			]
		},
		{
			"mesh":0,
			"name":"Cylinder",
			"scale":[
				0.6000000238418579,
				0.11999999731779099,
				0.6000000238418579
			]
		}
	],
	"cameras":[
		{
			"name":"Camera",
			"perspective":{
				"aspectRatio":1.7777777777777777,
				"yfov":0.39959652046304894,
				"zfar":100,
				"znear":0.10000000149011612
			},
			"type":"perspective"
		}
	],
	"materials":[
		{
			"doubleSided":true,
			"name":"Material",
			"pbrMetallicRoughness":{
				"baseColorFactor":[
					0.24619503319263458,
					0.24619503319263458,
					0.24619503319263458,
					1
				],
				"metallicFactor":0,
				"roughnessFactor":0.4000000059604645
			}
		},
		{
			"doubleSided":true,
			"name":"Material.001",
			"pbrMetallicRoughness":{
				"baseColorFactor":[
					0.8000000715255737,
					0.7104689478874207,
					0,
					1
				],
				"metallicFactor":0,
				"roughnessFactor":0.5
			}
		},
		{
			"doubleSided":true,
			"name":"Material.002",
			"pbrMetallicRoughness":{
				"baseColorFactor":[
					0.8000000715255737,
					0.0006698592915199697,
					0,
					1
				],
				"metallicFactor":0,
				"roughnessFactor":0.5
			}
		}
	],
	"meshes":[
		{
			"name":"Cylinder.001",
			"primitives":[
				{
					"attributes":{
						"POSITION":0,
						"NORMAL":1,
						"TEXCOORD_0":2
					},
					"indices":3,
					"material":0
				},
				{
					"attributes":{
						"POSITION":4,
						"NORMAL":5,
						"TEXCOORD_0":6
					},
					"indices":7,
					"material":1
				},
				{
					"attributes":{
						"POSITION":8,
						"NORMAL":9,
						"TEXCOORD_0":10
					},
					"indices":11,
					"material":2
				}
			]
		}
	],
	"accessors":[
		{
			"bufferView":0,
			"componentType":5126,
			"count":1364,
			"max":[
				1.6666667461395264,
				8.333333015441895,
				1.6666667461395264
			],
			"min":[
				-1.6666667461395264,
				-8.333333015441895,
				-1.6666667461395264
			],
			"type":"VEC3"
		},
		{
			"bufferView":1,
			"componentType":5126,
			"count":1364,
			"type":"VEC3"
		},
		{
			"bufferView":2,
			"componentType":5126,
			"count":1364,
			"type":"VEC2"
		},
		{
			"bufferView":3,
			"componentType":5123,
			"count":2490,
			"type":"SCALAR"
		},
		{
			"bufferView":4,
			"componentType":5126,
			"count":660,
			"max":[
				1,
				3.0806145668029785,
				1.2322452068328857
			],
			"min":[
				-1,
				-3.080613613128662,
				-1.2322452068328857
			],
			"type":"VEC3"
		},
		{
			"bufferView":5,
			"componentType":5126,
			"count":660,
			"type":"VEC3"
		},
		{
			"bufferView":6,
			"componentType":5126,
			"count":660,
			"type":"VEC2"
		},
		{
			"bufferView":7,
			"componentType":5123,
			"count":1176,
			"type":"SCALAR"
		},
		{
			"bufferView":8,
			"componentType":5126,
			"count":28,
			"max":[
				1.1741877794265747,
				5.870938777923584,
				1.1741877794265747
			],
			"min":[
				-1.1741877794265747,
				-6.436251640319824,
				-1.2872505187988281
			],
			"type":"VEC3"
		},
		{
			"bufferView":9,
			"componentType":5126,
			"count":28,
			"type":"VEC3"
		},
		{
			"bufferView":10,
			"componentType":5126,
			"count":28,
			"type":"VEC2"
		},
		{
			"bufferView":11,
			"componentType":5123,
			"count":72,
			"type":"SCALAR"
		}
	],
	"bufferViews":[
		{
			"buffer":0,
			"byteLength":16368,
			"byteOffset":0,
			"target":34962
		},
		{
			"buffer":0,
			"byteLength":16368,
			"byteOffset":16368,
			"target":34962
		},
		{
			"buffer":0,
			"byteLength":10912,
			"byteOffset":32736,
			"target":34962
		},
		{
			"buffer":0,
			"byteLength":4980,
			"byteOffset":43648,
			"target":34963
		},
		{
			"buffer":0,
			"byteLength":7920,
			"byteOffset":48628,
			"target":34962
		},
		{
			"buffer":0,
			"byteLength":7920,
			"byteOffset":56548,
			"target":34962
		},
		{
			"buffer":0,
			"byteLength":5280,
			"byteOffset":64468,
			"target":34962
		},
		{
			"buffer":0,
			"byteLength":2352,
			"byteOffset":69748,
			"target":34963
		},
		{
			"buffer":0,
			"byteLength":336,
			"byteOffset":72100,
			"target":34962
		},
		{
			"buffer":0,
			"byteLength":336,
			"byteOffset":72436,
			"target":34962
		},
		{
			"buffer":0,
			"byteLength":224,
			"byteOffset":72772,
			"target":34962
		},
		{
			"buffer":0,
			"byteLength":144,
			"byteOffset":72996,
			"target":34963
		}
	],
	"buffers":[
		{
			"byteLength":73140,
			"uri":"gyro_module-7302783ee26a49f92172f5c250baa2a8.bin"
		}
	]
}
