{
	"asset":{
		"generator":"Khronos glTF Blender I/O v3.6.27",
		"version":"2.0"
	},
	"scene":0,
	"scenes":[
		{
			"name":"Scene",
			"nodes":[
				0
			]
		}
	],
	"nodes":[
		{
			"mesh":0,
			"name":"Cylinder.001",
			"scale":[
				0.3499999940395355,
				1,
				0.3499999940395355
			]
		}
	],
	"materials":[
		{
			"doubleSided":true,
			"name":"Material",
			"pbrMetallicRoughness":{
				"baseColorFactor":[
					0.17886225879192352,
					0.17886225879192352,
					0.17886225879192352,
					1
				],
				"metallicFactor":0,
				"roughnessFactor":0.4000000059604645
			}
		}
	],
	"meshes":[
		{
			"name":"Cylinder.001",
			"primitives":[
				{
					"attributes":{
						"POSITION":0,
						"NORMAL":1,
						"TEXCOORD_0":2
					},
					"indices":3,
					"material":0
				}
			]
		}
	],
	"accessors":[
		{
			"bufferView":0,
			"componentType":5126,
			"count":913,
			"max":[
				2.857142686843872,
				2.999999761581421,
				2.857142686843872
			],
			"min":[
				-2.857142686843872,
				-2.999999761581421,
				-2.857142686843872
			],
			"type":"VEC3"
		},
		{
			"bufferView":1,
			"componentType":5126,
			"count":913,
			"type":"VEC3"
		},
		{
			"bufferView":2,
			"componentType":5126,
			"count":913,
			"type":"VEC2"
		},
		{
			"bufferView":3,
			"componentType":5123,
			"count":2628,
			"type":"SCALAR"
		}
	],
	"bufferViews":[
		{
			"buffer":0,
			"byteLength":10956,
			"byteOffset":0,
			"target":34962
		},
		{
			"buffer":0,
			"byteLength":10956,
			"byteOffset":10956,
			"target":34962
		},
		{
			"buffer":0,
			"byteLength":7304,
			"byteOffset":21912,
			"target":34962
		},
		{
			"buffer":0,
			"byteLength":5256,
			"byteOffset":29216,
			"target":34963
		}
	],
	"buffers":[
		{
			"byteLength":34472,
			"uri":"thruster_module-a3ec4e614dc73b770b24eba1520fa1d3.bin"
		}
	]
}
