{
	"asset":{
		"generator":"Khronos glTF Blender I/O v3.6.27",
		"version":"2.0"
	},
	"scene":0,
	"scenes":[
		{
			"name":"Scene",
			"nodes":[
				0
			]
		}
	],
	"nodes":[
		{
			"mesh":0,
			"name":"Cylinder"
		}
	],
	"materials":[
		{
			"doubleSided":true,
			"name":"Material",
			"pbrMetallicRoughness":{
				"baseColorFactor":[
					0.273831307888031,
					0.273831307888031,
					0.273831307888031,
					1
				],
				"metallicFactor":0,
				"roughnessFactor":0.4000000059604645
			}
		},
		{
			"doubleSided":true,
			"name":"Material.001",
			"pbrMetallicRoughness":{
				"baseColorFactor":[
					0,
					0,
					0,
					1
				],
				"metallicFactor":0,
				"roughnessFactor":0.5
			}
		}
	],
	"meshes":[
		{
			"name":"Cylinder",
			"primitives":[
				{
					"attributes":{
						"POSITION":0,
						"NORMAL":1,
						"TEXCOORD_0":2
					},
					"indices":3,
					"material":0
				},
				{
					"attributes":{
						"POSITION":4,
						"NORMAL":5,
						"TEXCOORD_0":6
					},
					"indices":7,
					"material":1
				}
			]
		}
	],
	"accessors":[
		{
			"bufferView":0,
			"componentType":5126,
			"count":224,
			"max":[
				0.7011712193489075,
				0.8317690491676331,
				0.7011711597442627
			],
			"min":[
				-0.7011712193489075,
				-0.8317690491676331,
				-0.7011711597442627
			],
			"type":"VEC3"
		},
		{
			"bufferView":1,
			"componentType":5126,
			"count":224,
			"type":"VEC3"
		},
		{
			"bufferView":2,
			"componentType":5126,
			"count":224,
			"type":"VEC2"
		},
		{
			"bufferView":3,
			"componentType":5123,
			"count":468,
			"type":"SCALAR"
		},
		{
			"bufferView":4,
			"componentType":5126,
			"count":448,
			"max":[
				2,
				1.097338080406189,
				2
			],
			"min":[
				-2,
				-1.097338080406189,
				-2
			],
			"type":"VEC3"
		},
		{
			"bufferView":5,
			"componentType":5126,
			"count":448,
			"type":"VEC3"
		},
		{
			"bufferView":6,
			"componentType":5126,
			"count":448,
			"type":"VEC2"
		},
		{
			"bufferView":7,
			"componentType":5123,
			"count":864,
			"type":"SCALAR"
		}
	],
	"bufferViews":[
		{
			"buffer":0,
			"byteLength":2688,
			"byteOffset":0,
			"target":34962
		},
		{
			"buffer":0,
			"byteLength":2688,
			"byteOffset":2688,
			"target":34962
		},
		{
			"buffer":0,
			"byteLength":1792,
			"byteOffset":5376,
			"target":34962
		},
		{
			"buffer":0,
			"byteLength":936,
			"byteOffset":7168,
			"target":34963
		},
		{
			"buffer":0,
			"byteLength":5376,
			"byteOffset":8104,
			"target":34962
		},
		{
			"buffer":0,
			"byteLength":5376,
			"byteOffset":13480,
			"target":34962
		},
		{
			"buffer":0,
			"byteLength":3584,
			"byteOffset":18856,
			"target":34962
		},
		{
			"buffer":0,
			"byteLength":1728,
			"byteOffset":22440,
			"target":34963
		}
	],
	"buffers":[
		{
			"byteLength":24168,
			"uri":"wheel_module-c390212d8dd568458af9de7b96f129df.bin"
		}
	]
}
